<?xml version="1.0" standalone="no"?><!DOCTYPE svg PUBLIC "-//W3C//DTD SVG 1.1//EN" "http://www.w3.org/Graphics/SVG/1.1/DTD/svg11.dtd"><svg t="1558054779493" class="icon" style="" viewBox="0 0 1024 1024" version="1.1" xmlns="http://www.w3.org/2000/svg" p-id="765" xmlns:xlink="http://www.w3.org/1999/xlink" width="256" height="256"><defs><style type="text/css"></style></defs><path d="M789.9392 362.2144c-28.2624 48.256-63.232 93.184-99.8144 136.448-93.184 113.152-198.016 208-322.816 289.536-4.9664 3.328-11.6224 8.32-16.6144 11.648-6.656 3.328-11.648 8.32-18.304 11.648a325.76 325.76 0 0 0 186.368 58.2144c179.712 0 326.1184-146.432 326.1184-327.808a318.6432 318.6432 0 0 0-54.9376-179.6864z m-179.712 372.736a22.016 22.016 0 0 1-21.632-21.632 22.016 22.016 0 0 1 21.632-21.632c11.648 0 21.6576 9.984 21.6576 21.632a22.0416 22.0416 0 0 1-21.6576 21.632z m189.696-389.376c13.312-24.96 34.944-63.232 23.296-98.176-6.656-16.6144-18.304-24.96-26.624-28.2624-29.952-9.984-69.888 14.976-76.544 19.968-8.32 4.9664-9.984 14.976-4.992 23.2704 4.992 8.32 14.976 10.0096 23.296 4.992 13.3376-8.32 36.6336-19.968 48.256-14.976 1.664 0 3.328 1.6896 4.992 6.656 6.656 19.968-9.984 49.92-21.632 71.552 0 0 0 1.664-1.664 1.664 8.32 9.984 14.976 18.304 21.632 28.2624 3.3536-4.9664 6.6816-8.2688 9.984-14.9504z m0 0" p-id="766" fill="#F0776F"></path><path d="M247.4752 818.1504c-11.648 3.328-24.96 1.6896-31.5904-4.992-6.6816-6.656-3.3536-16.6144-1.664-24.96 9.984-23.296 23.296-46.592 33.28-59.904 16.64 23.296 34.944 43.2384 54.912 61.568 9.984-4.992 18.304-11.648 26.624-18.3296 6.656-3.328 11.648-8.2944 18.304-11.6224 123.136-79.872 226.304-171.392 316.16-282.88 38.272-46.592 74.88-94.848 104.832-144.768-59.904-71.552-149.76-118.144-251.2384-118.144A327.3728 327.3728 0 0 0 189.2864 541.9264c0 56.576 14.976 109.824 39.936 156.416-6.656 9.984-29.952 41.6-44.928 78.208-9.984 23.296-6.656 44.928 6.656 59.904 9.984 11.648 26.624 18.304 44.928 18.304 6.656 0 14.976-1.6384 21.6576-3.328 26.5984-8.2944 51.584-23.2704 73.1904-38.272-9.984-6.656-18.304-13.312-28.288-21.632-16.6656 9.984-34.9696 19.968-54.9632 26.624z m218.0096-492.5184c29.952 0 54.912 24.96 54.912 54.8864s-24.96 54.9376-54.912 54.9376-54.9376-24.9856-54.9376-54.9376 24.9856-54.8864 54.9376-54.8864z m-104.8576 201.3184a31.616 31.616 0 1 1 0 63.232c-16.64-1.664-31.5904-15.0016-31.5904-31.616 0-16.64 14.976-31.616 31.5904-31.616z m0 0" p-id="767" fill="#F0776F"></path></svg>